<svg viewBox="0 0 198 198" fill="none" xmlns="http://www.w3.org/2000/svg">
  <path d="M155.035 110.729C153.831 111.882 152.41 112.535 150.915 113.111C149.785 113.534 148.582 113.764 147.634 114.687C147.451 114.879 147.16 115.148 146.868 114.84C146.649 114.648 146.431 114.725 146.394 114.917C146.248 115.609 145.884 115.57 145.41 115.378C145.045 115.263 144.863 115.301 145.154 115.724C144.899 115.878 144.644 116.031 144.352 116.108C139.905 117.799 135.42 119.374 130.79 120.488C128.347 121.064 126.123 122.255 123.754 123.062C119.379 124.522 114.931 125.175 110.374 125.444C107.639 125.636 104.868 125.559 102.134 125.79C96.5559 126.289 90.9779 126.52 85.3998 127.019C81.8634 127.327 78.3634 127.481 74.827 127.634C71.6187 127.749 68.4469 127.327 65.275 126.712C60.1709 125.713 55.0667 124.906 49.9262 124.1C40.9939 122.716 32.2441 120.411 23.8223 116.953C18.5723 114.802 13.5411 112.151 8.87451 108.77C5.62975 106.388 2.67665 103.66 0.489171 100.125C-2.71913 94.8617 -2.46396 89.406 1.18184 84.373C3.9891 80.4925 7.74424 77.9183 11.7182 75.69C18.9733 71.6174 26.8118 69.9653 34.942 69.5427C40.4836 69.2738 46.0616 69.2738 51.6397 69.2738C53.8636 69.2738 55.9782 68.5438 58.1292 68.0827C62.0667 67.1991 66.0042 66.1617 69.9052 65.1244C71.5093 64.7018 73.077 64.1639 74.5353 63.3186C75.3009 62.8576 76.2853 62.8576 76.9416 62.0892C77.2697 61.705 77.7436 61.9355 78.1811 62.2045C78.6551 62.4734 79.2384 62.6655 79.2748 61.705C79.3113 60.7061 79.7852 60.0145 80.8061 59.8224C81.28 59.7456 81.6447 59.6303 81.8634 59.1308C81.8999 59.054 81.9363 58.9771 81.9728 58.9771C82.9936 59.0924 83.3217 58.1319 83.978 57.6709C85.5092 56.6335 87.0404 55.4809 88.5716 54.482C89.6289 53.7904 90.5768 52.9452 91.5612 52.2536C92.0351 51.9078 92.5821 51.562 92.9831 51.1394C93.4571 50.6399 93.9674 50.2173 94.4778 49.7179C95.608 48.5653 97.0299 47.8737 98.1601 46.7595C99.5455 45.4148 100.676 43.8396 101.952 42.3796C105.379 38.5376 108.624 34.5418 112.525 31.1993C115.952 28.2793 119.962 26.8962 124.337 26.5504C126.561 26.3967 128.639 25.5131 130.79 24.9368C132.941 24.3221 134.946 23.3231 136.915 22.2474C138.118 21.5942 138.92 20.3648 139.795 19.2506C142.384 16.1385 144.681 12.6807 147.962 10.2986C150.696 8.30079 153.394 6.14925 156.456 4.61244C159.628 2.99878 162.873 1.69249 166.337 1.15461C171.878 0.309365 177.274 0.539889 182.597 2.72984C185.04 3.72877 187.3 4.99665 189.378 6.64872C192.039 8.76183 194.19 11.4128 196.05 14.3328C199.076 19.2122 200.06 24.6294 200.279 30.3156C200.388 33.0819 200.352 35.8481 199.841 38.576C199.623 39.6517 199.258 40.8043 199.112 41.8801C198.711 44.7232 197.545 47.2205 196.451 49.7179C195.248 52.3689 193.862 54.9046 192.477 57.4403C191.456 59.3229 190.071 60.9366 189.232 62.9344C188.941 63.6644 188.284 64.2023 187.81 64.817C187.227 65.547 187.045 66.4691 186.534 67.2375C184.711 69.9269 182.961 72.6548 181.139 75.3442C177.93 80.0315 175.342 85.1413 172.534 90.0976C171.331 92.2491 170.092 94.4006 168.889 96.5522C168.196 97.7816 167.357 98.8958 166.555 100.01C166.081 100.663 165.389 101.278 164.842 101.893C164.076 102.815 162.91 103.353 162.508 104.62C162.29 105.274 161.816 105.773 161.123 106.004C160.285 106.311 159.92 107.271 159.081 107.579C157.769 108.693 156.42 109.73 155.035 110.729ZM64.9468 72.8469C64.1083 72.6932 63.2698 72.5011 62.4313 73.039C62.1761 73.1927 61.8479 73.039 61.5927 72.8853C61.1188 72.6163 60.5719 72.77 60.3167 73.039C59.9157 73.5 59.4782 73.3463 59.0407 73.3463C58.749 73.3463 58.4574 73.2311 58.1657 73.3079C55.9418 73.8458 53.6449 73.7305 51.421 74.1147C50.5095 74.2684 49.5616 73.9611 48.6501 74.4989C48.3585 74.691 48.1033 75.2289 47.7752 74.9984C47.4106 74.7679 48.1033 74.3453 47.7387 73.9226C47.046 74.8831 46.0981 75.4979 44.9679 75.4979C44.02 75.4979 42.8898 76.2278 42.1606 74.8447C42.5981 75.6515 42.4523 76.0358 41.6867 76.2279C40.8117 76.4584 39.9002 76.4968 39.0617 76.6889C38.369 76.8426 37.7127 77.3036 36.9836 77.1499C35.9992 76.9578 35.2336 78.1873 34.2128 77.4957C34.067 77.3805 33.7388 77.6494 33.9211 78.0336C34.1399 78.5331 35.0149 78.7636 35.4524 78.341C36.0721 77.8031 36.9471 78.2641 37.5304 77.6878C38.0044 78.6099 38.4419 77.8415 38.9159 77.6494C39.0252 77.611 39.1346 77.4957 39.2804 77.6494C39.7179 78.1489 40.4471 77.9568 40.9939 78.6099C40.9939 78.0336 40.4836 77.5341 40.9211 77.3805C41.4679 77.1884 41.2856 78.072 41.796 78.3025C41.9054 77.6878 42.3064 77.4957 42.8898 77.5726C44.6762 77.8799 46.3169 77.0731 47.9575 76.6121C48.9418 76.3431 49.9262 76.1894 50.8741 76.1126C52.5512 75.9589 54.2282 75.4979 55.8688 75.1905C57.8011 74.8447 59.7698 74.3837 61.7021 73.8458C62.7229 73.6153 63.9625 73.6537 64.9468 72.8469C66.4052 72.8085 66.9885 72.4242 66.9885 71.4637C66.3323 72.0016 65.3479 71.9632 64.9468 72.8469ZM70.3426 120.987C71.801 121.41 73.1135 121.449 74.3895 121.487C84.9623 121.833 95.4258 120.373 105.926 119.489C105.124 119.335 71.5822 120.795 70.3426 120.987ZM165.607 91.5191C161.269 96.168 156.748 100.702 152.701 105.619C158.352 102.315 162.472 97.3974 165.607 91.5191ZM2.64016 96.2064C2.45787 96.8596 2.60372 97.2438 2.74955 97.628C3.47871 99.7027 4.90053 101.201 6.35885 102.661C7.05156 103.353 7.12449 103.353 8.10886 102.815C5.70263 102.277 4.60887 100.855 5.4474 99.3953C4.97345 99.1263 4.02553 98.819 4.24427 98.4732C4.75468 97.5127 3.95266 97.5895 3.661 97.359C3.33288 97.0901 2.89536 96.898 2.64016 96.2064ZM79.4207 75.1137C76.7593 75.6515 74.1343 76.4584 71.5458 77.342C74.3166 77.1883 77.0145 76.7273 79.4207 75.1137ZM6.24946 80.7614C9.05673 78.8789 11.937 77.0731 14.8901 75.421C11.7182 76.6889 8.83798 78.4947 6.24946 80.7614ZM83.1029 112.842C80.879 112.458 78.8374 113.342 76.7228 113.841C78.9103 113.995 80.9884 113.342 83.1029 112.842ZM7.67138 103.66C8.94741 105.389 9.6036 105.504 10.6244 103.929C9.45777 104.659 8.76512 102.93 7.67138 103.66ZM154.014 106.81C153.977 106.734 153.904 106.657 153.868 106.58C152.045 107.617 150.259 108.693 148.436 109.73C148.472 109.807 148.509 109.884 148.545 109.961C150.514 109.192 152.227 107.963 154.014 106.81ZM93.3112 112.304C91.6706 112.381 89.9935 111.959 88.4622 112.881C90.0299 112.535 91.707 112.727 93.3112 112.304ZM59.0043 93.978C60.2438 93.9396 61.5198 94.0549 62.6865 93.2096C61.374 93.3249 60.1345 93.3249 59.0043 93.978ZM75.4833 92.2491C76.3582 92.1723 77.2697 92.1339 78.1082 91.1349C76.978 91.2502 76.2124 91.6728 75.4833 92.2491ZM61.7021 92.5565C62.6136 92.1723 63.6344 92.6717 64.6917 91.9417C63.525 91.9033 62.5771 92.0954 61.7021 92.5565ZM33.6295 78.5715C33.4107 78.072 32.9003 78.2257 32.8638 77.7262C32.8638 77.611 31.9888 78.341 32.1346 78.4946C32.5721 78.8788 33.0461 78.4178 33.6295 78.5715ZM152.337 104.928C151.79 104.851 151.316 104.774 151.061 105.235C150.988 105.389 151.134 105.658 151.352 105.696C151.863 105.85 152.082 105.466 152.337 104.928Z" fill="#FCECE2"/>
  <circle cx="99" cy="99" r="67.8824" fill="white" stroke="#12333C" stroke-width="4"/>
  <path d="M 121.712 64.427 L 71.629 64.427 C 70.665 64.427 69.882 65.209 69.882 66.174 L 69.882 129.651 C 69.882 130.616 70.665 131.398 71.629 131.398 L 121.712 131.398 C 122.677 131.398 123.459 130.616 123.459 129.651 L 123.459 66.174 C 123.459 65.209 122.677 64.427 121.712 64.427 Z" fill="white"/>
  <path opacity="0.1" d="M 123.459 127.904 L 123.459 129.651 C 123.459 130.114 123.275 130.559 122.947 130.886 C 122.619 131.214 122.175 131.398 121.712 131.398 L 71.629 131.398 C 71.166 131.398 70.722 131.214 70.394 130.886 C 70.066 130.559 69.882 130.114 69.882 129.651 L 69.882 127.904 C 69.882 128.367 70.066 128.812 70.394 129.139 C 70.722 129.467 71.166 129.651 71.629 129.651 L 121.712 129.651 C 122.175 129.651 122.619 129.467 122.947 129.139 C 123.275 128.812 123.459 128.367 123.459 127.904 Z" fill="#12333C"/>
  <path d="M 118.218 68.504 L 75.124 68.504 L 75.124 126.739 L 118.218 126.739 L 118.218 68.504 Z" fill="white"/>
  <path d="M 118.218 123.827 L 118.218 126.739 L 75.124 126.739 L 75.124 123.827 L 118.218 123.827 Z" fill="#CEE0E0"/>
  <path d="M 129.865 119.169 C 137.262 119.169 143.259 113.172 143.259 105.775 C 143.259 98.377 137.262 92.38 129.865 92.38 C 122.467 92.38 116.471 98.377 116.471 105.775 C 116.471 113.172 122.467 119.169 129.865 119.169 Z" fill="#E5735C"/>
  <path opacity="0.1" d="M 129.865 119.168 C 128.008 119.168 126.171 118.782 124.471 118.034 C 122.772 117.286 121.246 116.192 119.992 114.823 C 118.737 113.454 117.781 111.839 117.184 110.081 C 116.586 108.323 116.361 106.459 116.523 104.609 C 116.819 107.944 118.352 111.046 120.822 113.306 C 123.291 115.566 126.517 116.82 129.865 116.82 C 133.212 116.82 136.438 115.566 138.908 113.306 C 141.377 111.046 142.911 107.944 143.206 104.609 C 143.368 106.459 143.143 108.323 142.546 110.081 C 141.949 111.839 140.992 113.454 139.738 114.823 C 138.483 116.192 136.958 117.286 135.258 118.034 C 133.558 118.782 131.722 119.168 129.865 119.168 Z" fill="#12333C"/>
  <path d="M 123.459 117.532 L 123.459 119.861 C 121.268 118.665 119.453 116.882 118.218 114.713 L 118.218 112.384 C 119.453 114.553 121.268 116.336 123.459 117.532 Z" fill="#12333C"/>
  <path d="M 118.218 112.39 L 118.218 114.719 C 116.873 112.359 116.282 109.645 116.523 106.939 C 116.688 108.857 117.266 110.716 118.218 112.39 Z" fill="#9DA4A4"/>
  <path d="M 113.559 77.821 L 79.782 77.821 L 79.782 85.392 L 113.559 85.392 L 113.559 77.821 Z" fill="white"/>
  <path d="M 101.289 62.098 C 101.14 60.978 100.589 59.951 99.74 59.208 C 98.89 58.464 97.8 58.054 96.671 58.054 C 95.542 58.054 94.451 58.464 93.601 59.208 C 92.752 59.951 92.202 60.978 92.053 62.098 L 85.024 62.098 L 85.024 71.415 L 108.318 71.415 L 108.318 62.098 L 101.289 62.098 Z M 96.671 64.427 C 96.325 64.427 95.987 64.325 95.7 64.133 C 95.413 63.941 95.189 63.668 95.057 63.349 C 94.924 63.029 94.89 62.678 94.957 62.339 C 95.025 62 95.191 61.689 95.435 61.445 C 95.68 61.2 95.991 61.034 96.33 60.966 C 96.669 60.899 97.02 60.934 97.339 61.066 C 97.658 61.198 97.931 61.422 98.123 61.709 C 98.315 61.997 98.418 62.334 98.418 62.68 C 98.418 63.143 98.234 63.588 97.906 63.915 C 97.578 64.243 97.134 64.427 96.671 64.427 Z" fill="#CEE0E0"/>
  <path opacity="0.1" d="M 108.318 69.086 L 85.024 69.086 L 85.024 71.415 L 108.318 71.415 L 108.318 69.086 Z" fill="#12333C"/>
  <path d="M 96.671 65.009 C 97.131 65.009 97.582 64.873 97.965 64.617 C 98.348 64.361 98.646 63.997 98.823 63.571 C 98.999 63.146 99.045 62.677 98.955 62.226 C 98.865 61.774 98.644 61.359 98.318 61.033 C 97.992 60.707 97.577 60.485 97.125 60.395 C 96.673 60.306 96.205 60.352 95.779 60.528 C 95.354 60.704 94.99 61.003 94.734 61.386 C 94.478 61.769 94.341 62.219 94.341 62.68 C 94.341 63.298 94.587 63.89 95.024 64.327 C 95.46 64.764 96.053 65.009 96.671 65.009 Z M 96.671 61.515 C 96.901 61.515 97.126 61.584 97.318 61.712 C 97.509 61.84 97.659 62.022 97.747 62.234 C 97.835 62.447 97.858 62.681 97.813 62.907 C 97.768 63.133 97.657 63.341 97.494 63.504 C 97.331 63.667 97.124 63.777 96.898 63.822 C 96.672 63.867 96.438 63.844 96.225 63.756 C 96.012 63.668 95.83 63.519 95.702 63.327 C 95.574 63.136 95.506 62.91 95.506 62.68 C 95.506 62.371 95.629 62.075 95.847 61.856 C 96.065 61.638 96.362 61.515 96.671 61.515 Z" fill="#12333C"/>
  <path d="M 124.041 93.056 L 124.041 66.174 C 124.041 65.557 123.796 64.964 123.359 64.527 C 122.922 64.09 122.33 63.845 121.712 63.845 L 108.9 63.845 L 108.9 62.098 C 108.9 61.943 108.839 61.795 108.729 61.686 C 108.62 61.577 108.472 61.516 108.318 61.516 L 101.789 61.516 C 101.533 60.349 100.886 59.305 99.955 58.556 C 99.024 57.808 97.865 57.4 96.671 57.4 C 95.476 57.4 94.317 57.808 93.387 58.556 C 92.456 59.305 91.808 60.349 91.552 61.516 L 85.024 61.516 C 84.869 61.516 84.721 61.577 84.612 61.686 C 84.503 61.795 84.441 61.943 84.441 62.098 L 84.441 63.845 L 71.629 63.845 C 71.012 63.845 70.419 64.09 69.982 64.527 C 69.545 64.964 69.3 65.557 69.3 66.174 L 69.3 129.651 C 69.3 130.269 69.545 130.861 69.982 131.298 C 70.419 131.735 71.012 131.98 71.629 131.98 L 121.712 131.98 C 122.33 131.98 122.922 131.735 123.359 131.298 C 123.796 130.861 124.041 130.269 124.041 129.651 L 124.041 118.493 C 126.17 119.463 128.509 119.883 130.842 119.715 C 133.176 119.546 135.43 118.795 137.397 117.529 C 139.365 116.263 140.983 114.524 142.104 112.47 C 143.225 110.416 143.812 108.114 143.812 105.774 C 143.812 103.435 143.225 101.133 142.104 99.079 C 140.983 97.025 139.365 95.286 137.397 94.02 C 135.43 92.754 133.176 92.003 130.842 91.834 C 128.509 91.666 126.17 92.086 124.041 93.056 Z M 121.712 65.01 C 122.021 65.01 122.317 65.132 122.535 65.351 C 122.754 65.569 122.876 65.865 122.876 66.174 L 122.876 93.673 C 121.3 94.577 119.916 95.78 118.8 97.214 L 118.8 68.504 C 118.8 68.349 118.739 68.201 118.629 68.092 C 118.52 67.983 118.372 67.921 118.218 67.921 L 108.9 67.921 L 108.9 65.01 L 121.712 65.01 Z M 85.024 71.998 L 108.318 71.998 C 108.472 71.998 108.62 71.937 108.729 71.827 C 108.839 71.718 108.9 71.57 108.9 71.416 L 108.9 69.086 L 117.635 69.086 L 117.635 99.013 C 116.491 101.083 115.891 103.409 115.891 105.774 C 115.891 108.139 116.491 110.466 117.635 112.535 L 117.635 126.157 L 75.706 126.157 L 75.706 69.086 L 84.441 69.086 L 84.441 71.416 C 84.441 71.57 84.503 71.718 84.612 71.827 C 84.721 71.937 84.869 71.998 85.024 71.998 Z M 85.606 62.68 L 92.053 62.68 C 92.197 62.681 92.336 62.629 92.443 62.533 C 92.551 62.437 92.619 62.305 92.635 62.162 C 92.782 61.198 93.269 60.319 94.008 59.684 C 94.748 59.049 95.69 58.7 96.665 58.7 C 97.639 58.7 98.582 59.049 99.321 59.684 C 100.06 60.319 100.548 61.198 100.695 62.162 C 100.71 62.305 100.779 62.437 100.886 62.533 C 100.994 62.629 101.133 62.681 101.277 62.68 L 107.735 62.68 L 107.735 70.833 L 85.606 70.833 L 85.606 62.68 Z M 122.876 129.651 C 122.876 129.96 122.754 130.256 122.535 130.474 C 122.317 130.693 122.021 130.815 121.712 130.815 L 71.629 130.815 C 71.321 130.815 71.024 130.693 70.806 130.474 C 70.587 130.256 70.465 129.96 70.465 129.651 L 70.465 66.174 C 70.465 65.865 70.587 65.569 70.806 65.351 C 71.024 65.132 71.321 65.01 71.629 65.01 L 84.441 65.01 L 84.441 67.921 L 75.124 67.921 C 74.969 67.921 74.821 67.983 74.712 68.092 C 74.603 68.201 74.541 68.349 74.541 68.504 L 74.541 126.739 C 74.541 126.894 74.603 127.042 74.712 127.151 C 74.821 127.26 74.969 127.321 75.124 127.321 L 118.218 127.321 C 118.372 127.321 118.52 127.26 118.629 127.151 C 118.739 127.042 118.8 126.894 118.8 126.739 L 118.8 114.335 C 119.916 115.769 121.3 116.972 122.876 117.876 L 122.876 129.651 Z M 129.865 118.586 C 127.331 118.586 124.854 117.835 122.747 116.427 C 120.64 115.019 118.998 113.018 118.028 110.677 C 117.058 108.336 116.805 105.76 117.299 103.275 C 117.793 100.79 119.014 98.507 120.805 96.715 C 122.597 94.923 124.88 93.703 127.365 93.209 C 129.85 92.714 132.427 92.968 134.768 93.938 C 137.109 94.908 139.11 96.55 140.517 98.657 C 141.925 100.763 142.676 103.24 142.676 105.774 C 142.676 109.172 141.327 112.431 138.924 114.834 C 136.521 117.236 133.263 118.586 129.865 118.586 Z" fill="#12333C"/>
  <path d="M 136.434 100.696 L 127.535 109.595 L 123.296 105.355 C 123.185 105.244 123.034 105.182 122.876 105.182 C 122.719 105.182 122.568 105.244 122.457 105.355 C 122.346 105.466 122.284 105.617 122.284 105.775 C 122.284 105.932 122.346 106.083 122.457 106.194 C 127.483 111.22 127.186 111.016 127.535 111.016 C 127.885 111.016 127.069 111.726 137.272 101.523 C 137.382 101.412 137.443 101.262 137.442 101.106 C 137.441 100.95 137.378 100.8 137.266 100.691 C 137.155 100.581 137.005 100.52 136.849 100.521 C 136.693 100.522 136.543 100.585 136.434 100.696 Z" fill="white"/>
  <path d="M 79.2 77.822 L 79.2 85.392 C 79.2 85.547 79.261 85.695 79.371 85.804 C 79.48 85.913 79.628 85.975 79.782 85.975 L 113.559 85.975 C 113.713 85.975 113.861 85.913 113.971 85.804 C 114.08 85.695 114.141 85.547 114.141 85.392 L 114.141 77.822 C 114.141 77.667 114.08 77.519 113.971 77.41 C 113.861 77.301 113.713 77.239 113.559 77.239 L 79.782 77.239 C 79.628 77.239 79.48 77.301 79.371 77.41 C 79.261 77.519 79.2 77.667 79.2 77.822 Z M 80.365 78.404 L 112.976 78.404 L 112.976 84.81 L 80.365 84.81 L 80.365 78.404 Z" fill="#12333C"/>
  <path d="M 113.559 91.215 L 83.276 91.215 C 83.122 91.215 82.974 91.277 82.865 91.386 C 82.755 91.495 82.694 91.643 82.694 91.798 C 82.694 91.952 82.755 92.1 82.865 92.21 C 82.974 92.319 83.122 92.38 83.276 92.38 L 113.559 92.38 C 113.713 92.38 113.861 92.319 113.971 92.21 C 114.08 92.1 114.141 91.952 114.141 91.798 C 114.141 91.643 114.08 91.495 113.971 91.386 C 113.861 91.277 113.713 91.215 113.559 91.215 Z" fill="#12333C"/>
  <path d="M 113.559 95.875 L 79.782 95.875 C 79.628 95.875 79.48 95.936 79.371 96.045 C 79.261 96.154 79.2 96.302 79.2 96.457 C 79.2 96.611 79.261 96.759 79.371 96.869 C 79.48 96.978 79.628 97.039 79.782 97.039 L 113.559 97.039 C 113.713 97.039 113.861 96.978 113.971 96.869 C 114.08 96.759 114.141 96.611 114.141 96.457 C 114.141 96.302 114.08 96.154 113.971 96.045 C 113.861 95.936 113.713 95.875 113.559 95.875 Z" fill="#12333C"/>
  <path d="M 113.559 100.533 L 79.782 100.533 C 79.628 100.533 79.48 100.595 79.371 100.704 C 79.261 100.813 79.2 100.961 79.2 101.116 C 79.2 101.27 79.261 101.418 79.371 101.527 C 79.48 101.637 79.628 101.698 79.782 101.698 L 113.559 101.698 C 113.713 101.698 113.861 101.637 113.971 101.527 C 114.08 101.418 114.141 101.27 114.141 101.116 C 114.141 100.961 114.08 100.813 113.971 100.704 C 113.861 100.595 113.713 100.533 113.559 100.533 Z" fill="#12333C"/>
  <path d="M 79.782 106.357 L 97.253 106.357 C 97.407 106.357 97.556 106.295 97.665 106.186 C 97.774 106.077 97.835 105.929 97.835 105.774 C 97.835 105.62 97.774 105.472 97.665 105.363 C 97.556 105.253 97.407 105.192 97.253 105.192 L 79.782 105.192 C 79.628 105.192 79.48 105.253 79.371 105.363 C 79.261 105.472 79.2 105.62 79.2 105.774 C 79.2 105.929 79.261 106.077 79.371 106.186 C 79.48 106.295 79.628 106.357 79.782 106.357 Z" fill="#12333C"/>
  <path d="M 113.559 109.851 L 83.276 109.851 C 83.122 109.851 82.974 109.912 82.865 110.021 C 82.755 110.13 82.694 110.279 82.694 110.433 C 82.694 110.587 82.755 110.736 82.865 110.845 C 82.974 110.954 83.122 111.015 83.276 111.015 L 113.559 111.015 C 113.713 111.015 113.861 110.954 113.971 110.845 C 114.08 110.736 114.141 110.587 114.141 110.433 C 114.141 110.279 114.08 110.13 113.971 110.021 C 113.861 109.912 113.713 109.851 113.559 109.851 Z" fill="#12333C"/>
  <path d="M 113.559 114.51 L 79.782 114.51 C 79.628 114.51 79.48 114.571 79.371 114.68 C 79.261 114.79 79.2 114.938 79.2 115.092 C 79.2 115.247 79.261 115.395 79.371 115.504 C 79.48 115.613 79.628 115.675 79.782 115.675 L 113.559 115.675 C 113.713 115.675 113.861 115.613 113.971 115.504 C 114.08 115.395 114.141 115.247 114.141 115.092 C 114.141 114.938 114.08 114.79 113.971 114.68 C 113.861 114.571 113.713 114.51 113.559 114.51 Z" fill="#12333C"/>
  <path d="M 106.571 119.169 L 79.782 119.169 C 79.628 119.169 79.48 119.23 79.371 119.339 C 79.261 119.448 79.2 119.596 79.2 119.751 C 79.2 119.905 79.261 120.053 79.371 120.163 C 79.48 120.272 79.628 120.333 79.782 120.333 L 106.571 120.333 C 106.725 120.333 106.873 120.272 106.982 120.163 C 107.092 120.053 107.153 119.905 107.153 119.751 C 107.153 119.596 107.092 119.448 106.982 119.339 C 106.873 119.23 106.725 119.169 106.571 119.169 Z" fill="#12333C"/>
</svg>