<svg width="198" height="198" viewBox="0 0 198 198" fill="none" xmlns="http://www.w3.org/2000/svg">
<path d="M110.894 124.365C110.598 124.854 110.09 124.231 109.795 124.632C109.414 124.231 108.949 124.498 108.527 124.32C108.315 124.365 108.738 123.697 108.189 124.008C107.85 124.187 107.386 124.142 106.921 124.187C106.878 123.919 106.836 123.652 106.752 123.252C106.667 123.563 106.625 123.697 106.54 123.83C106.244 123.652 105.949 123.43 105.653 123.207C105.695 122.985 105.78 122.718 105.864 122.451C105.399 122.139 104.892 122.006 104.216 122.273C104.681 122.495 105.061 122.718 105.484 122.896C105.357 123.163 105.272 123.385 105.146 123.608C104.934 123.519 105.103 122.851 104.554 123.252C104.638 123.474 104.765 123.697 104.85 123.919C104.765 123.964 104.681 124.053 104.681 124.008C104.3 123.786 103.92 123.563 103.54 123.341C103.201 124.008 102.567 124.276 101.764 124.498C101.849 124.276 101.891 124.098 101.976 123.875C101.764 123.741 101.68 123.296 101.215 123.341C101.3 123.697 101.342 124.053 101.384 124.409C101.004 124.587 100.961 124.676 101.088 124.943C100.539 125.388 100.454 124.543 100.032 124.498C99.9894 124.81 99.9471 125.032 99.9048 125.255C99.6935 125.21 99.5667 124.899 99.2286 125.166C98.8059 125.522 98.172 125.7 97.7494 126.056C97.2844 126.412 96.9464 126.234 96.5237 126.056C96.5237 126.278 96.4814 126.456 96.4814 126.768C95.8897 126.634 95.4248 127.079 94.8754 127.257C93.5652 127.702 92.3395 128.236 91.0716 128.771C89.9305 129.216 88.8316 129.75 87.7327 130.195C86.8029 130.595 85.8731 130.951 84.9433 131.307C83.6754 131.797 82.4497 132.375 81.1818 132.909C80.2097 133.31 79.2376 133.755 78.2233 134.2C77.8852 134.334 77.6316 134.645 77.209 134.556C77.1244 134.512 76.9976 134.601 76.9131 134.645C76.0256 135.491 74.7576 135.491 73.8278 136.203C73.7856 136.247 73.701 136.247 73.6165 136.247C72.6444 136.069 71.9682 136.692 71.1652 137.093C69.9395 137.672 68.6293 138.117 67.3191 138.473C67.0233 138.562 66.7274 138.606 66.5161 138.74C66.3048 138.873 66.0512 138.784 65.8399 138.873C65.5863 139.007 65.3327 139.185 65.1214 139.407C64.8678 139.719 64.6988 139.096 64.3606 139.407C64.1493 139.63 63.6844 139.63 63.3886 139.763C62.8814 140.03 62.2474 139.941 61.7825 140.431C61.698 140.52 61.4022 140.52 61.2331 140.431C60.9373 140.297 60.8527 140.253 60.6836 140.609C60.5991 140.831 60.092 140.876 59.7961 140.92C58.7818 141.098 57.8942 141.677 56.8376 141.677C56.0346 142.256 55.0625 142.211 54.1327 142.478C53.9214 142.523 53.7101 142.612 53.4987 142.656C53.1184 142.745 52.6957 142.567 52.3153 142.879C52.0195 143.101 51.5123 142.745 51.132 143.146C51.0474 143.235 50.7516 143.146 50.6248 143.057C50.2444 142.79 50.4557 143.19 50.3712 143.235C50.2444 143.324 50.0331 143.235 49.9063 143.279C49.2723 143.591 48.6384 143.68 47.9621 143.591C46.7787 143.413 45.6376 143.902 44.4965 143.858C44.1584 143.858 43.778 144.125 43.4399 143.813C42.7636 144.169 42.0874 143.68 41.4534 143.813C41.1576 143.858 40.8618 144.125 40.6504 144.036C40.101 143.813 39.5516 143.858 39.0021 143.813C38.4527 143.769 37.9033 143.68 37.3538 143.591C37.2693 143.591 37.1848 143.591 37.1425 143.546C36.8889 143.146 36.5085 143.413 36.2549 143.279C35.6632 143.057 35.0293 143.19 34.4798 142.834C34.0572 142.567 33.6768 142.344 33.4655 142.077C33.381 142.255 33.2964 142.434 33.2119 142.656C32.3666 141.988 31.141 142.077 30.4225 140.92C30.2112 140.92 29.8731 140.92 29.5772 140.92C29.4504 140.698 29.3659 140.431 29.2814 140.431C28.6897 140.431 28.2248 140.386 28.267 139.541C28.267 139.407 27.9712 139.274 27.5485 138.962C27.7176 139.452 27.7598 139.63 27.8866 139.986C27.4217 139.674 27.1259 139.452 26.83 139.229C26.5342 139.007 26.1961 138.784 26.027 138.517C25.7734 138.161 25.3508 138.072 25.1395 137.716C24.9704 137.404 24.7591 137.048 24.4632 136.781C24.2097 136.514 24.0406 136.114 23.7025 135.891C23.4489 135.758 23.4066 135.268 23.2798 134.912C23.3644 134.823 23.4489 134.69 23.5757 134.601C23.6602 134.69 23.7448 134.779 23.9138 134.912C23.8715 134.645 23.9138 134.512 23.8293 134.378C23.5757 133.978 23.153 133.8 22.7727 133.577C22.6036 133.488 22.3923 133.399 22.35 133.221C22.2655 132.998 22.35 132.731 22.3078 132.509C22.2232 132.331 21.8851 132.242 21.8851 132.108C21.8851 131.485 21.4625 130.907 21.6315 130.284C21.2089 129.26 21.4625 128.147 21.4202 127.124C21.2934 125.166 21.8006 123.296 22.4346 121.516C23.1108 119.469 24.1674 117.6 25.4353 115.909C26.3229 114.707 27.1682 113.505 28.1402 112.348C29.4504 110.791 30.6338 109.099 31.7327 107.364C32.0708 106.83 32.2399 106.207 32.6202 105.672C32.9584 105.183 33.1697 104.56 33.381 103.937C33.55 103.403 33.5923 102.824 33.6768 102.246C33.7614 101.801 33.55 101.311 33.8882 100.866C33.9727 100.777 33.8881 100.554 33.8459 100.421C33.8036 100.243 33.6768 100.065 33.6768 99.8868C33.55 97.3056 32.1976 95.1248 30.2957 93.7007C29.1546 92.8106 27.9289 92.143 26.7455 91.3419C25.0972 90.1848 23.3221 89.2502 21.6738 88.093C20.4059 87.2029 19.0112 86.4019 17.701 85.6008C16.2217 84.6662 14.6157 83.9096 13.3055 82.6635C12.587 82.5299 12.2066 81.8179 11.5727 81.5508C10.8542 81.2393 10.3893 80.5272 9.75531 80.0822C8.99455 79.5481 8.40285 78.836 7.72662 78.213C7.34624 77.8569 7.0504 77.4119 6.54323 77.1449C6.28964 77.0113 5.99379 76.7443 5.90926 76.4773C5.69794 75.8987 5.23304 75.6317 4.89493 75.2311C3.24662 73.2729 1.97869 71.0922 1.17567 68.5999C0.837556 67.5763 0.753038 66.4637 0.288132 65.4846C0.457189 64.5945 0.0345444 63.7934 0.0345444 62.9033C0.0768085 62.0577 -0.0922456 61.1676 0.0768111 60.3665C0.330396 59.1649 0.330386 57.8742 0.964349 56.7616C1.17567 55.1149 2.73945 52.1776 3.41568 51.0205C4.2187 49.6853 5.35982 48.6617 6.45869 47.6381C7.00813 47.104 7.68436 46.6145 8.48738 46.4365C8.99455 46.303 9.45946 46.0359 10.0089 45.9024C10.5161 45.7689 10.8964 45.6799 11.3613 45.8579C11.5304 45.9469 11.8263 45.7244 12.0376 45.7244C12.4602 45.6799 12.8829 45.6799 13.3055 45.7244C13.6013 45.7689 13.8972 46.0804 14.2353 45.7689C14.5734 46.125 15.0383 45.8134 15.4187 45.9469C15.7568 46.0804 16.0527 46.303 16.3908 46.4365C16.9402 46.6145 17.4897 46.748 18.0391 46.926C18.2081 46.9705 18.3772 47.0595 18.5463 47.1486C19.4338 47.7716 20.4482 47.9496 21.4202 48.3502C22.4346 48.7952 23.5334 49.0623 24.5055 49.5963C25.224 49.9524 25.9848 50.1749 26.7033 50.4864C27.464 50.798 28.1825 51.1985 28.9432 51.51C30.507 52.0886 31.9863 52.9787 33.5078 53.6908C35.4519 54.6699 37.3538 55.6045 39.298 56.5836C42.6368 58.3193 46.018 60.055 49.3568 61.7462C50.2021 62.1467 51.0474 62.5918 51.935 62.8588C52.3576 62.9923 52.6957 63.2593 53.1184 63.3928C53.7523 63.5709 54.3863 63.7489 55.0203 63.8824C55.5274 63.9714 56.0769 63.9714 56.5418 64.1494C57.3448 64.5055 58.2323 64.5055 59.0354 64.817C59.9229 65.1285 60.8527 64.728 61.5712 64.0604C61.9093 63.7934 62.1629 63.4374 62.4587 63.1258C63.6844 61.9687 63.9803 60.5445 63.4731 58.8979C63.2618 58.1858 62.9659 57.4737 63.0082 56.6726C62.5433 56.2276 63.0082 55.5155 62.5855 55.0259C62.6701 54.1358 62.4588 53.2457 62.7546 52.3111C62.9659 51.6881 63.135 50.976 63.0505 50.2639C62.8391 48.3947 63.2195 46.5255 63.304 44.6563C63.3886 43.3656 63.6844 42.0305 64.0225 40.7399C64.2761 39.8498 64.6565 39.0487 64.9101 38.2031C65.2482 37.2685 65.8822 36.4229 66.4316 35.5773C67.5727 33.7971 69.1365 32.462 70.8271 31.3048C72.0527 30.4592 73.3629 29.7472 74.7576 29.2576C75.3493 29.0796 75.9833 28.9906 76.575 28.8125C77.209 28.6345 77.8852 28.8125 78.4346 28.59C79.0263 28.3675 79.618 28.3675 80.2097 28.412C81.3086 28.501 82.4074 28.679 83.4641 28.9015C84.5207 29.0796 85.4927 29.5691 86.5071 29.9697C87.8173 30.5037 89.0429 31.1713 90.1841 32.0614C90.3531 32.1949 90.5644 32.2839 90.6912 32.4619C91.3674 33.3965 92.1282 34.3311 92.7199 35.3548C93.7765 37.0459 94.9176 38.2476 96.3969 39.4492C96.6505 39.6272 96.7773 39.9388 96.9886 40.2058C97.369 40.0723 97.6226 39.8943 97.9184 39.8943C98.2143 39.8943 98.4678 39.7162 98.7637 39.6717C99.0596 39.5827 99.3977 39.5827 99.6935 39.6717C99.9894 39.7607 100.158 39.3157 100.454 39.5382C100.539 39.6272 100.792 39.4492 101.004 39.3602C101.215 39.2712 101.426 39.2712 101.595 39.1377C101.849 38.9597 101.976 39.4937 102.272 39.2712C102.441 39.1377 102.694 39.2267 102.906 39.1377C103.159 39.0932 103.37 38.9597 103.624 38.9151C103.962 38.8261 104.258 39.0487 104.554 39.0932C104.765 39.1377 105.019 38.7371 105.272 38.6481C105.61 38.5591 105.991 38.6036 106.329 38.4256C106.667 38.2921 107.217 38.1586 107.386 38.8707C107.386 38.9152 107.724 38.8707 107.935 38.8707C107.851 38.6481 107.766 38.5146 107.681 38.3366C108.062 38.1586 108.358 37.669 108.78 38.1141C108.949 37.847 109.076 38.1586 109.203 38.1141C109.499 38.0696 109.626 37.313 110.09 37.847C110.386 37.7135 110.724 37.5355 111.063 37.4465C111.189 37.402 111.401 37.669 111.527 37.6245C111.697 37.58 111.866 37.224 112.077 37.491C112.288 37.758 112.373 37.3575 112.5 37.4465C112.584 37.5355 112.626 37.7135 112.669 37.847C113.429 37.58 113.429 37.58 113.641 36.8679C113.852 36.9569 114.063 37.0459 114.232 37.1795C114.359 37.313 114.486 37.491 114.57 37.6245C114.697 37.402 114.824 37.1795 114.951 36.9569C116.557 37.402 116.684 37.3575 117.275 36.2449C117.529 36.2449 117.783 36.2449 118.036 36.2449C118.078 36.3784 118.163 36.5119 118.247 36.6899C118.374 36.0668 118.374 36.0668 118.966 35.7553C119.22 35.6663 118.755 36.4229 119.304 36.0668C119.6 35.8888 119.896 35.8888 120.234 36.1113C120.403 36.2004 120.657 36.2004 120.826 36.1113C121.206 35.9778 121.713 35.9778 121.629 35.3103C121.629 35.1767 121.798 34.9987 122.136 35.2212C122.432 35.4438 122.897 35.3993 123.361 35.4883C123.277 35.2658 123.235 35.0877 123.15 34.8207C123.784 35.0877 124.334 35.2212 124.841 34.6872C125.01 34.5092 125.221 34.9097 125.559 34.6872C126.024 34.3757 126.658 34.3757 127.292 34.1976C127.292 34.0641 127.334 33.8416 127.377 33.6636C127.419 33.6191 127.461 33.6191 127.503 33.6191C127.799 33.6636 128.856 33.4856 129.194 33.3965C129.743 33.2185 130.293 33.0405 130.842 32.907C133.42 32.1949 135.914 31.1268 138.492 30.3257C140.309 29.7471 142.127 29.2131 143.986 28.7235C145.55 28.323 147.114 27.9224 148.635 27.3884C149.481 27.1214 150.411 26.9878 151.298 26.8098C151.594 26.7653 151.848 26.6318 152.143 26.5873C152.608 26.4983 153.073 26.4093 153.538 26.3203C154.003 26.2313 154.51 26.2313 154.933 26.0532C155.947 25.6972 157.004 25.7417 158.018 25.3857C158.568 25.1631 159.244 25.3412 159.878 25.1186C160.385 24.9406 161.019 25.0741 161.484 24.8071C161.991 24.4956 162.54 24.6736 163.048 24.4066C163.555 24.1395 164.273 24.3621 164.907 24.1395C165.161 24.0505 165.541 24.2731 165.795 24.4066C166.175 24.6291 166.555 24.7181 166.894 24.3621C167.063 24.184 169.091 23.3384 169.176 23.4275C169.598 23.8725 169.979 23.472 170.486 23.2939C170.444 23.561 170.401 23.739 170.359 23.8725C170.317 24.006 170.275 24.1395 170.232 24.3176C170.782 24.1395 170.782 23.739 170.74 23.3384C170.951 23.472 171.12 23.65 171.162 23.6055C171.416 23.4275 171.627 23.5165 171.923 23.6055C172.134 23.65 172.388 23.472 172.641 23.3829C172.768 23.3384 172.937 23.3384 173.106 23.3829C173.318 23.4275 173.487 23.8725 173.783 23.472C174.036 23.1159 174.248 23.6945 174.417 23.5165C174.839 23.0269 175.177 23.6055 175.515 23.6055C175.811 23.65 176.234 23.6945 176.318 24.184C176.318 24.2285 176.614 24.3175 176.699 24.2285C176.868 24.1395 176.995 23.917 177.164 24.095C177.671 24.5846 178.432 24.6736 178.939 25.2076C179.066 25.3412 179.235 25.4747 179.404 25.4747C179.742 25.4302 179.869 25.6972 180.038 25.9197C180.249 26.1868 180.503 26.4538 180.756 26.6763C181.052 26.8988 181.221 27.2104 181.686 27.2549C182.024 27.2994 182.235 27.8334 182.658 28.0115C183.884 28.501 184.983 29.2131 186.039 29.9697C187.054 30.6818 188.152 31.3938 189.082 32.2839C189.674 32.818 190.266 33.352 190.857 33.9306C191.745 34.8652 192.379 36.0223 193.182 37.046C194.323 38.4256 194.957 40.0723 195.675 41.6745C196.352 43.0986 196.732 44.6118 197.112 46.1695C197.324 47.1041 197.282 48.1277 197.746 49.0178C197.746 49.0623 197.746 49.1068 197.746 49.1513C197.577 50.1304 198 51.0205 198 51.9551C197.958 52.8897 198 53.8243 198 54.7589C198 55.1149 197.831 55.5155 197.789 55.8715C197.746 56.2276 197.789 56.5391 197.577 56.8951C197.451 57.1622 197.493 57.5627 197.366 57.8742C197.282 58.0522 197.493 58.4528 197.577 58.7198C197.62 59.0314 197.62 59.3429 197.197 59.3874C197.112 60.055 196.605 60.5445 196.521 61.1231C196.352 62.2802 195.506 63.0368 195.253 64.1049C194.746 64.4165 194.872 65.173 194.365 65.5736C193.985 65.8851 193.816 66.4637 193.52 66.9087C193.182 67.3983 192.802 67.7988 192.463 68.2884C192.379 68.3774 192.294 68.5109 192.294 68.5554C192.463 69.2675 191.914 69.5345 191.576 69.9351C190.984 70.5581 190.392 71.2257 189.801 71.8043C188.744 72.8279 187.645 73.807 186.42 74.6526C185.617 75.1866 184.983 76.0322 184.137 76.4773C183.208 77.0113 182.362 77.6789 181.475 78.2575C180.334 78.9696 179.192 79.6371 178.009 80.3047C176.783 81.0168 175.515 81.6398 174.332 82.3519C173.614 82.797 172.937 83.331 172.177 83.6426C171.12 84.0876 170.232 84.7552 169.26 85.3338C168.077 86.0013 166.936 86.8914 165.795 87.6925C164.823 88.4046 164.062 89.3392 163.217 90.1848C162.878 90.5408 162.583 90.8969 162.118 91.1639C161.695 91.3864 161.399 91.8315 161.188 92.321C160.765 93.2556 160.343 94.2347 160.089 95.2138C159.962 95.6144 160.047 96.0594 159.962 96.5045C159.92 96.816 160.216 97.3501 159.582 97.4391C159.54 97.4391 159.497 97.7061 159.497 97.8841C159.497 98.7297 159.497 99.5753 159.497 100.421C159.497 100.955 159.92 101.445 159.751 102.023C160.216 102.513 159.878 103.225 160.174 103.803C160.427 104.293 160.343 105.005 160.469 105.628C160.638 106.385 161.019 107.141 161.061 107.898C161.103 108.832 161.568 109.544 161.695 110.435C161.822 111.236 162.329 111.948 162.456 112.749C162.625 113.817 162.963 114.796 163.217 115.82C163.259 115.909 163.09 116.087 163.005 116.22C163.132 116.265 163.259 116.309 163.428 116.354C163.47 117.11 163.597 117.822 163.851 118.579C163.935 118.846 163.851 119.202 163.893 119.514C163.935 119.825 164.062 120.092 164.104 120.404C164.146 120.76 164.146 121.071 164.315 121.427C164.484 121.694 164.527 122.095 164.569 122.406C164.569 122.762 164.654 123.074 164.823 123.385C164.992 123.652 164.358 123.964 164.865 124.276C165.203 124.498 164.907 124.899 165.076 125.166C165.414 125.7 165.288 126.367 165.499 126.946C165.626 127.302 165.71 127.747 165.752 128.147C165.837 128.548 165.668 128.993 165.964 129.349C165.583 129.572 166.006 129.705 166.006 129.883C166.006 130.061 166.133 130.239 166.133 130.417C166.175 130.64 166.133 130.862 166.133 131.085C166.133 131.174 166.048 131.307 166.091 131.352C166.682 131.841 166.386 132.687 166.682 133.31C166.809 133.577 166.809 133.978 166.894 134.289C167.02 134.734 167.274 135.224 167.189 135.758C167.147 135.98 167.274 136.292 167.401 136.514C167.654 136.87 167.612 137.271 167.612 137.627C167.57 138.206 167.697 138.161 167.823 138.829C167.95 139.407 168.288 139.941 168.288 140.564C168.288 141.098 168.922 141.632 168.331 142.211C168.331 142.211 168.5 142.433 168.584 142.523C168.838 142.834 168.795 143.19 168.88 143.546C169.007 143.991 169.007 144.347 168.753 144.703C168.88 144.748 169.007 144.748 169.091 144.792C169.134 144.837 169.176 144.837 169.176 144.881C169.26 145.593 169.345 146.261 169.429 146.973C169.514 147.596 169.218 148.219 169.641 148.842C169.768 149.02 169.26 149.332 169.641 149.643C169.725 149.732 169.556 150.088 169.514 150.355C169.641 150.4 169.768 150.444 169.894 150.489C169.852 151.201 169.134 151.735 169.641 152.492C169.303 152.625 168.711 152.536 168.753 153.293C168.965 153.204 169.091 153.115 169.26 153.026C169.345 153.07 169.429 153.115 169.429 153.159C169.429 153.426 169.387 153.693 169.345 153.96C169.345 154.049 169.303 154.183 169.303 154.227C169.894 154.45 169.26 154.984 169.641 155.384C169.979 155.74 169.556 156.275 169.387 156.675C169.26 157.076 169.218 157.432 169.176 157.788C169.134 158.322 169.134 158.945 168.922 159.345C168.669 159.79 168.88 160.28 168.669 160.681C168.457 161.081 168.204 161.482 168.288 161.971C167.739 162.639 167.781 163.529 167.358 164.241C167.274 164.374 167.063 164.419 166.894 164.508C166.894 164.908 166.894 165.309 166.894 165.71C166.598 165.888 166.175 165.977 166.175 166.466C165.626 166.778 166.344 167.134 166.133 167.49C166.048 167.49 165.879 167.579 165.837 167.49C165.71 167.356 165.626 167.223 165.414 167.445C165.288 167.623 165.372 167.668 165.414 167.801C165.541 168.202 165.245 168.736 165.161 168.691C164.738 168.246 164.696 168.825 164.485 168.914C164.4 168.958 164.315 169.136 164.315 169.181C164.484 169.938 163.893 170.116 163.512 170.383C162.329 171.139 162.287 171.095 161.315 171.139C161.315 171.362 161.272 171.584 161.315 171.851C161.357 172.207 161.188 172.43 160.977 172.563C160.258 173.008 159.582 173.453 158.821 173.854C158.103 174.21 157.384 174.611 156.623 174.7C155.482 174.833 154.426 175.367 153.285 175.278C152.186 175.189 151.044 175.234 149.946 175.278C148.762 175.278 147.663 174.922 146.522 174.655C145.761 174.477 145.001 174.21 144.282 173.854C143.817 173.631 143.31 173.498 142.761 173.587C142.042 173.72 141.408 173.409 140.774 173.097C139.041 172.296 137.731 171.273 136.252 170.16C135.491 169.581 134.731 169.092 134.097 168.335C133.04 167.134 132.279 165.843 131.561 163.974C131.18 162.995 130.673 162.105 130.124 161.215C129.067 159.523 128.391 157.877 127.419 155.74C126.616 153.96 125.982 152.047 125.306 150.222C124.925 149.243 124.545 148.308 124.207 147.285C123.911 146.305 123.573 145.326 123.023 144.392C122.685 143.858 122.474 143.146 122.136 142.612C121.502 141.543 121.037 140.431 120.53 139.318C119.938 137.983 119.262 136.648 118.712 135.268C118.247 134.022 117.487 132.998 117.022 131.752C116.557 130.551 115.923 129.394 115.374 128.236C114.824 127.124 114.106 126.189 112.964 125.7C111.992 125.433 111.358 124.988 110.894 124.365ZM107.808 120.359C107.85 120.315 107.935 120.226 107.977 120.181C107.935 120.137 107.85 120.003 107.808 120.003C107.343 120.048 106.836 120.048 106.667 119.87C106.075 119.202 105.315 119.469 104.638 119.603C104.047 119.736 103.455 120.137 102.906 120.404C102.737 120.493 102.525 120.626 102.356 120.626C102.272 120.626 102.187 120.359 102.018 120.582C101.934 120.715 101.849 120.893 101.638 121.249C102.314 120.938 102.779 121.783 103.328 121.16C103.328 121.16 103.582 121.294 103.624 121.383C103.666 121.694 103.92 121.694 104.047 121.605C104.638 121.249 105.272 121.427 105.906 121.338C105.949 121.071 105.991 120.849 105.991 120.804C106.16 120.982 106.329 121.16 106.498 121.338C106.456 121.338 106.329 121.383 106.371 121.383C106.54 121.561 106.709 121.739 106.878 121.917C106.963 121.516 106.625 120.849 107.343 120.626C107.681 120.938 108.062 120.982 108.527 120.76C108.273 120.671 108.02 120.493 107.808 120.359ZM75.8142 35.6218C75.2648 35.3103 74.8421 35.0877 74.4195 34.8652C74.335 34.9542 74.2505 35.0432 74.1237 35.1322C74.2082 35.2212 74.2927 35.3103 74.335 35.3548C73.8278 35.7998 73.3206 36.2004 72.8135 36.6454C72.8557 36.6899 72.9825 36.8234 72.9825 36.8679C72.8135 37.1795 72.6022 37.4465 72.4331 37.7135C72.0527 38.3811 71.5878 39.0042 71.9682 39.8498C72.4754 39.4937 72.729 38.7816 73.4474 38.8261C73.3629 38.6036 73.1939 38.3811 73.2784 38.2921C73.532 37.8915 73.7856 37.402 74.1659 37.135C74.5463 36.8679 74.8844 36.5119 74.969 36.1559C75.0958 35.6663 75.4339 35.8443 75.8142 35.6218ZM161.188 166.644C161.484 166.199 161.78 165.843 161.949 165.443C162.625 164.107 163.681 162.995 163.808 161.393C163.808 161.348 163.935 161.304 163.977 161.215C164.315 160.725 164.527 160.235 164.485 159.612C164.442 158.989 164.611 158.411 164.865 157.832C164.992 157.565 165.034 157.343 164.696 157.076C164.527 157.298 164.358 157.476 164.273 157.699C164.146 158.055 164.146 158.455 164.02 158.811C163.724 159.79 163.555 160.859 163.005 161.749C162.921 161.882 162.836 162.06 162.878 162.149C163.005 162.772 162.667 163.351 162.371 163.751C161.737 164.552 161.611 165.621 160.808 166.244C160.977 166.422 161.061 166.511 161.188 166.644ZM160.934 138.384C160.765 138.695 160.554 139.051 160.596 139.096C160.934 139.452 160.765 139.852 160.765 140.253C160.808 140.653 160.85 141.098 160.765 141.454C160.638 141.855 161.188 142.122 160.808 142.478C161.188 142.79 160.977 143.19 161.019 143.591C161.061 143.991 161.019 144.392 161.019 144.792C161.019 146.35 161.019 147.863 161.019 149.421C161.019 149.554 161.061 149.732 161.103 149.866C161.188 149.243 161.399 148.62 161.441 148.041C161.526 146.617 161.441 145.193 161.695 143.769C161.822 143.19 161.568 142.523 161.526 141.944C161.484 140.698 161.23 139.585 160.934 138.384ZM176.023 39.2712C176.234 39.4047 176.403 39.5382 176.614 39.6717C176.783 39.8053 176.995 39.8943 177.164 40.0278C176.868 40.6063 176.868 40.6063 177.248 40.8734C177.375 41.0069 177.586 41.1404 177.629 41.2739C177.713 41.8525 178.051 41.5409 178.22 41.5409C178.178 41.0959 178.136 40.6953 178.136 40.2948C178.643 39.9388 178.136 39.6272 178.136 39.2712C178.136 39.0487 177.967 38.8706 177.84 38.6926C177.798 38.6481 177.544 38.8261 177.375 38.9597C177.248 38.6481 177.164 38.4256 176.995 38.0696C177.333 38.2031 177.502 38.2921 177.671 38.3811C177.882 37.847 177.333 38.0696 177.248 37.847C177.206 37.58 177.248 37.313 177.248 36.9569C176.657 36.9569 176.149 36.9569 175.685 36.9569C175.6 36.7344 175.558 36.6454 175.473 36.3784C175.431 37.313 175.431 37.313 175.811 37.669C175.854 37.5355 175.896 37.402 175.938 37.224C176.149 37.4465 176.318 37.6245 176.488 37.758C176.699 37.6245 176.826 37.58 177.037 37.4465C176.952 38.2031 176.445 38.3366 176.107 38.6036C176.023 38.8261 176.023 39.0932 176.023 39.2712ZM185.025 69.49C185.194 69.49 185.278 69.5345 185.321 69.5345C185.955 68.956 186.673 68.3774 187.265 67.7543C188.533 66.4637 189.547 64.906 190.477 63.3483C190.9 62.6363 191.407 61.9242 191.576 61.0341C191.66 60.6335 191.365 60.7225 191.322 60.5445C190.519 62.1467 189.843 63.8379 188.702 65.2175C187.561 66.6417 186.293 68.0213 185.025 69.49ZM67.0233 37.0905C66.2625 37.5355 65.9667 38.3366 65.6286 39.0932C65.2905 39.8053 65.1214 40.5618 64.8256 41.2739C64.4874 42.075 64.3184 42.8761 64.2761 43.6772C64.2338 44.5228 63.7267 45.3239 64.1071 46.214C64.2339 45.9914 64.3606 45.8134 64.4452 45.5909C64.4874 45.4574 64.4452 45.2794 64.4874 45.1013C64.6142 44.5673 64.741 43.9887 64.8678 43.4547C64.9946 42.8761 65.2905 42.2975 65.2059 41.6745C65.7976 40.3393 66.0089 38.8706 66.812 37.669C66.8542 37.491 66.9388 37.2685 67.0233 37.0905ZM178.051 60.8116C177.967 60.7671 177.924 60.7225 177.84 60.678C177.671 60.9006 177.544 61.1676 177.375 61.3456C177.164 61.5236 176.783 61.5236 176.614 61.7017C176.234 62.1022 175.769 62.2802 175.346 62.5472C175.177 63.3038 174.543 63.4818 174.078 63.8824C173.698 64.1939 173.318 64.5055 172.98 64.817C172.895 64.906 172.853 65.1285 172.811 65.262C173.191 65.084 173.402 64.728 173.867 64.8615C174.205 64.9505 174.163 64.639 174.29 64.461C174.374 64.3274 174.839 64.3719 174.882 64.2829C174.966 63.7934 175.304 63.7489 175.6 63.5264C175.938 63.3038 176.318 63.0813 176.53 62.7698C176.783 62.4582 177.121 62.4582 177.417 62.3692C177.333 62.1912 177.291 61.9687 177.164 61.7017C177.586 61.7017 177.84 61.7017 178.136 61.7017C178.051 61.3456 178.051 61.0786 178.051 60.8116Z" fill="#FCECE2"/>
<circle cx="99" cy="99" r="67.8824" fill="white" stroke="#12333C" stroke-width="4"/>
<circle cx="100.382" cy="86.835" r="14.835" fill="#E5735C"/>
<path opacity="0.1" d="M100.382 100.822C98.4351 100.824 96.5077 100.431 94.7165 99.6678C92.9253 98.9042 91.3074 97.7854 89.9605 96.3791C88.6137 94.9729 87.5658 93.3082 86.8801 91.4857C86.1945 89.6632 85.8852 87.7207 85.9712 85.7754C85.9712 89.5975 87.4895 93.263 90.1921 95.9656C92.8947 98.6682 96.5602 100.187 100.382 100.187C104.204 100.187 107.87 98.6682 110.573 95.9656C113.275 93.263 114.793 89.5975 114.793 85.7754C114.879 87.7207 114.57 89.6632 113.884 91.4857C113.199 93.3082 112.151 94.9729 110.804 96.3791C109.457 97.7854 107.839 98.9042 106.048 99.6678C104.257 100.431 102.329 100.824 100.382 100.822Z" fill="#12333C"/>
<path d="M100.382 72C97.4483 72 94.5801 72.8701 92.1405 74.5001C89.7009 76.1302 87.7994 78.4471 86.6766 81.1579C85.5538 83.8686 85.26 86.8514 85.8324 89.7291C86.4048 92.6069 87.8177 95.2502 89.8924 97.3249C91.9671 99.3996 94.6105 100.813 97.4882 101.385C100.366 101.957 103.349 101.664 106.059 100.541C108.77 99.4179 111.087 97.5165 112.717 95.0769C114.347 92.6373 115.217 89.7691 115.217 86.835C115.211 82.9026 113.646 79.1331 110.865 76.3525C108.084 73.5719 104.315 72.0067 100.382 72ZM100.382 100.822C97.6159 100.822 94.9116 100.002 92.6114 98.465C90.3113 96.928 88.5185 94.7435 87.4598 92.1877C86.4011 89.6318 86.1241 86.8195 86.6638 84.1062C87.2035 81.3929 88.5357 78.9006 90.4919 76.9445C92.448 74.9883 94.9403 73.6562 97.6536 73.1165C100.367 72.5768 103.179 72.8538 105.735 73.9124C108.291 74.9711 110.475 76.7639 112.012 79.0641C113.549 81.3643 114.37 84.0686 114.37 86.835C114.37 90.5446 112.896 94.1024 110.273 96.7255C107.65 99.3486 104.092 100.822 100.382 100.822Z" fill="#12333C"/>
<path d="M103.906 77.5896C103.724 77.5656 103.551 77.4975 103.407 77.388C102.723 76.8668 101.894 76.4983 100.971 76.3494C98.1294 75.8905 95.4755 77.6872 95.0435 80.3626C94.9901 80.6933 94.9731 81.022 94.9898 81.345C95.0039 81.6188 94.8856 81.8825 94.6791 82.0713C94.1457 82.5587 93.7714 83.2098 93.6501 83.961C93.5055 84.8569 93.7472 85.7311 94.2581 86.4308C94.5204 86.7901 94.5389 87.2848 94.285 87.6401C93.9395 88.1239 93.6992 88.687 93.5994 89.3056C93.262 91.3949 94.644 93.3872 96.7495 93.9872C96.9678 94.0494 97.1594 94.1802 97.291 94.357C97.9582 95.254 98.9898 95.9112 100.217 96.1094C102.622 96.4976 104.867 94.9773 105.233 92.7135C105.331 92.1088 105.284 91.5122 105.118 90.9551C104.955 90.4087 105.295 89.7469 105.83 89.5031C106.84 89.0428 107.596 88.1385 107.779 87.0072C107.954 85.9252 107.565 84.8751 106.819 84.1254C106.443 83.7476 106.358 83.1174 106.623 82.6737C106.828 82.3315 106.971 81.9483 107.038 81.5348C107.337 79.6826 105.985 77.9236 104.017 77.6059C103.98 77.5999 103.943 77.5945 103.906 77.5896Z" fill="white" stroke="#12333C"/>
<path d="M94.592 95.5203L94.592 95.3889C94.592 91.9661 97.4385 89.1914 100.95 89.1914C104.461 89.1914 107.308 91.9661 107.308 95.3889V95.5201C105.452 96.6147 103.277 97.2447 100.95 97.2447C98.6229 97.2447 96.4471 96.6148 94.592 95.5203Z" fill="white" stroke="#12333C"/>
<path d="M103.917 80.7144L97.9828 82.2402V85.292C97.9828 86.9774 99.3112 88.3438 100.95 88.3438C102.588 88.3438 103.917 86.9774 103.917 85.292V80.7144Z" fill="white" stroke="#12333C"/>
<path d="M136.575 123.563C136.909 123.935 137.05 124.343 136.985 124.749C136.92 125.155 136.651 125.546 136.203 125.888C135.755 126.229 135.142 126.51 134.419 126.704C133.697 126.898 132.888 127 132.066 127H67.9338C67.1119 127 66.303 126.898 65.5806 126.704C64.8581 126.51 64.2451 126.229 63.7971 125.888C63.3491 125.546 63.0804 125.155 63.0154 124.749C62.9504 124.343 63.0912 123.935 63.4249 123.563L65.5806 116H134.419L136.575 123.563Z" fill="#CEE0E0"/>
<path d="M129.333 105.011V73.2335C129.333 71.9369 128.818 70.6935 127.901 69.7766C126.984 68.8598 125.741 68.3447 124.444 68.3447H75.5562C74.2596 68.3447 73.0161 68.8598 72.0993 69.7766C71.1824 70.6935 70.6674 71.9369 70.6674 73.2335V105.011H129.333Z" stroke="#12333C" stroke-width="2" stroke-linecap="round" stroke-linejoin="round"/>
<path d="M136.246 120.137C136.576 120.881 136.716 121.696 136.651 122.508C136.587 123.32 136.321 124.103 135.877 124.786C135.433 125.469 134.825 126.03 134.109 126.419C133.393 126.807 132.592 127.01 131.777 127.01H68.2228C67.4083 127.01 66.6066 126.807 65.8907 126.419C65.1748 126.03 64.5672 125.469 64.1233 124.786C63.6794 124.103 63.4131 123.32 63.3487 122.508C63.2842 121.696 63.4237 120.881 63.7544 120.137L70.6672 105.011H129.333L136.246 120.137Z" stroke="#12333C" stroke-width="2" stroke-linecap="round" stroke-linejoin="round"/>
</svg>
