<svg width="198" height="198" viewBox="0 0 198 198" fill="none" xmlns="http://www.w3.org/2000/svg">
<path d="M51.3293 46.7637C52.3923 45.6831 53.5733 45.8909 54.3213 47.1793C54.4394 47.4287 54.5967 47.5949 54.7936 47.3871C55.4235 46.7637 55.9747 47.0962 56.6833 47.304C57.2738 47.4702 57.7462 47.9274 58.376 47.969C58.6516 47.969 58.8878 48.2183 58.9272 48.5508C58.9665 49.0495 59.439 48.9664 59.5965 49.1327C60.4626 50.0886 62.1159 49.2574 62.667 50.7951C63.9268 50.5873 64.0844 52.1251 65.1473 52.4991C66.3283 52.8732 67.2337 54.0785 68.1785 55.0344C69.7138 56.6137 71.2492 58.193 72.4302 60.0633C74.0837 62.5985 76.3669 64.5103 78.2171 66.8377C78.7289 67.4611 79.5951 67.7936 80.0675 68.5002C81.1697 70.0379 83.1382 70.5783 84.0436 72.3654C86.6418 73.5707 88.1771 76.1475 90.4998 77.7683C95.027 80.8854 99.6724 83.7532 104.672 86.039C108.884 87.9924 113.175 89.6964 117.624 91.0264C121.128 92.0654 124.789 92.3979 128.371 92.9797C135.497 94.1019 142.661 94.7253 149.787 95.7644C154.59 96.4709 159.314 97.6762 163.959 99.1724C170.73 101.334 177.226 104.16 183.525 107.568C187.461 109.687 191.123 112.306 194.272 115.672C197.933 119.662 199.193 127.808 196.713 132.338C195.729 134.084 194.548 135.705 193.052 136.993C192.343 137.616 191.674 138.281 191.004 138.988C189.666 140.36 188.091 141.357 186.674 142.604C186.359 142.853 186.044 143.227 185.532 143.019C185.375 142.936 185.257 142.978 185.178 143.103C182.541 146.095 179.076 147.55 175.573 148.921C170.494 150.916 165.18 151.581 159.786 151.955C151.913 152.495 144.079 152.662 136.205 152.537C129.119 152.412 122.072 151.789 115.026 151.124C106.483 150.293 97.9403 149.42 89.3976 148.713C79.3196 147.882 69.202 147.3 59.124 146.22C52.7071 145.513 46.3298 144.474 39.9916 143.186C32.4725 141.689 25.1894 139.404 18.5364 135.248C13.2218 131.964 8.53711 127.725 4.99405 122.364C0.545547 115.672 -1.42284 108.15 1.13604 100.17C3.18314 93.9357 4.00983 87.5768 4.56097 81.0517C5.26958 72.407 8.77325 65.1338 15.6625 60.0217C17.4734 58.6502 18.7726 56.6553 20.5047 55.2422C22.355 53.7044 24.1266 52.0419 26.1737 50.8367C31.6064 47.678 37.3932 45.9325 43.5739 45.5584C44.2431 45.5169 45.1094 45.1012 45.6999 45.974C45.7393 46.0156 45.9755 45.974 46.0936 45.8909C47.7076 45.1013 49.3216 45.7247 50.8963 45.8909C51.4474 45.8494 51.4081 45.9325 51.3293 46.7637ZM117.112 146.511C105.971 145.139 94.8696 143.601 83.6499 143.352C94.7909 144.391 105.932 145.43 117.112 146.511ZM38.1413 47.9274C37.7083 47.5533 37.3146 47.7196 36.9997 47.8027C33.4566 49.008 29.7954 49.7976 26.646 52.0835C26.4491 52.2497 26.213 52.3744 25.9768 52.4576C24.7958 52.8732 23.9296 53.7875 22.9061 54.4941C22.7486 54.6188 22.5518 54.8681 22.788 55.0759C22.9849 55.2837 23.1423 55.0344 23.3392 54.9097C24.1265 54.411 24.8352 53.8291 25.6226 53.3303C28.6539 51.4185 31.8032 49.8392 35.2282 48.8418C36.2123 48.5924 37.1177 48.2599 38.1413 47.9274ZM149.669 127.392C152.7 128.307 166.4 128.182 167.699 127.226C161.637 127.476 155.653 127.476 149.669 127.392ZM155.456 147.217C149.078 147.3 142.661 147.176 136.284 147.674C142.701 147.799 149.078 147.674 155.456 147.217ZM92.0745 89.6133C92.1139 89.4886 92.1532 89.4055 92.2319 89.2808C89.9486 88.1586 87.7048 87.078 85.4215 85.9559C86.9568 88.6989 89.7518 88.6158 92.0745 89.6133ZM15.8988 71.4095C17.1192 69.4561 18.7726 67.8352 19.9142 65.8819C17.8278 67.0871 16.568 68.9989 15.8988 71.4095ZM10.0331 87.6599C11.3716 83.296 12.8675 79.0152 14.3635 74.7344C12.5132 78.8905 10.9385 83.1713 10.0331 87.6599ZM18.7332 129.512C16.4499 127.766 14.4815 125.564 11.9226 124.192C13.9304 126.353 16.2137 128.099 18.7332 129.512ZM150.023 151.914C144.197 151.914 138.331 151.914 132.505 151.914C138.331 152.121 144.197 152.163 150.023 151.914ZM39.834 63.1388C42.6291 62.3076 45.5029 61.7673 48.3374 61.0608C45.3455 61.0192 42.5504 61.9335 39.834 63.1388ZM22.0795 99.3802C22.0401 98.549 21.6464 98.549 21.2921 98.6737C20.3473 98.9646 19.5206 99.6296 18.6939 100.17C18.4971 100.295 18.4183 100.544 18.5364 100.752C18.6545 101.001 18.93 100.876 19.1269 100.793C19.9536 100.461 20.7803 100.128 21.607 99.7542C21.8432 99.6296 22.0795 99.5049 22.0795 99.3802ZM44.6369 67.8352C41.6844 68.5833 38.9681 69.8717 36.4486 71.6173C39.0862 70.1626 41.8812 69.0405 44.6369 67.8352ZM19.9929 71.2017C18.497 72.9057 17.8278 75.0669 17.1585 77.1865C18.064 75.1915 19.0481 73.1966 19.9929 71.2017ZM31.6063 134.915C33.1022 135.497 34.5982 135.954 36.1729 136.12C34.7163 135.497 33.2597 134.79 31.6063 134.915ZM173.644 142.562C174.825 142.396 175.887 142.064 176.832 141.357C175.73 141.606 174.47 141.565 173.644 142.562ZM124.986 151.373C127.033 151.415 129.119 152.121 131.442 151.747C129.158 151.623 127.072 151.498 124.986 151.373ZM62.3522 69.8302C62.5884 71.4926 63.9268 70.8692 64.6748 71.3264C64.0056 70.7445 63.3364 70.1211 62.3522 69.8302ZM89.555 148.131C88.0984 148.048 86.6418 147.633 85.1458 147.924C86.6024 147.799 88.0591 148.381 89.555 148.131ZM145.575 151.041C145.575 151.082 145.575 151.082 145.575 151.124C147.149 151.124 148.724 151.124 150.299 151.124C150.299 151.082 150.299 151.082 150.299 151.041C148.724 151.041 147.149 151.041 145.575 151.041ZM155.653 151.83C155.653 151.789 155.653 151.747 155.692 151.747C154.235 151.747 152.779 151.747 151.322 151.747C151.322 151.789 151.322 151.83 151.322 151.83C152.779 151.83 154.235 151.83 155.653 151.83ZM148.763 127.559C148.803 127.476 148.803 127.392 148.842 127.309C147.897 127.309 146.953 127.309 145.693 127.309C146.874 127.392 147.819 127.476 148.763 127.559ZM182.422 118.083C182.422 118 182.462 117.958 182.462 117.875C181.635 117.667 180.808 117.418 180.021 117.21C179.982 117.335 179.982 117.459 179.942 117.584C180.769 117.75 181.596 117.916 182.422 118.083ZM20.741 98.258C20.7016 98.1749 20.6622 98.0918 20.5834 97.9671C19.9536 98.3827 19.2056 98.6321 18.8119 99.4217C19.4812 99.0477 20.1111 98.6737 20.741 98.258ZM8.10403 100.004C7.90719 101.001 7.51358 101.957 7.67105 102.996C7.90725 102.04 8.3796 101.084 8.10403 100.004Z" fill="#FCECE2"/>
<circle cx="98.8824" cy="99" r="67.8824" fill="white" stroke="#12333C" stroke-width="4"/>
<path d="M129.865 62.312C128.32 62.312 126.839 62.9256 125.747 64.0177C124.655 65.1098 124.041 66.591 124.041 68.1355V129.865C124.041 131.409 123.428 132.891 122.335 133.983C121.243 135.075 119.762 135.688 118.218 135.688C116.673 135.688 115.192 135.075 114.1 133.983C113.008 132.891 112.394 131.409 112.394 129.865V125.206H73.9588V68.1355C73.9588 66.591 74.5724 65.1098 75.6645 64.0177C76.7566 62.9256 78.2379 62.312 79.7824 62.312H129.865Z" fill="white"/>
<path d="M135.688 68.1355V72.7944H124.041V68.1355C124.041 66.591 124.655 65.1098 125.747 64.0177C126.839 62.9256 128.32 62.312 129.865 62.312C131.409 62.312 132.89 62.9256 133.983 64.0177C135.075 65.1098 135.688 66.591 135.688 68.1355Z" fill="#CEE0E0"/>
<path d="M118.218 135.688H68.1353C66.5908 135.688 65.1096 135.075 64.0174 133.983C62.9253 132.891 62.3118 131.409 62.3118 129.865V125.206H112.394V129.865C112.394 131.409 113.008 132.891 114.1 133.983C115.192 135.075 116.673 135.688 118.218 135.688Z" fill="#CEE0E0"/>
<path opacity="0.1" d="M135.688 70.4648H124.041V72.7943H135.688V70.4648Z" fill="#12333C"/>
<path opacity="0.1" d="M118.218 135.688H68.1353C67.2312 135.688 66.3396 135.478 65.5309 135.073C64.7223 134.669 64.0189 134.082 63.4765 133.359H113.559C114.101 134.082 114.805 134.669 115.613 135.073C116.422 135.478 117.314 135.688 118.218 135.688Z" fill="#12333C"/>
<path d="M130.135 61.7295H80.0529C78.354 61.7295 76.7246 62.4044 75.5233 63.6057C74.322 64.8071 73.6471 66.4364 73.6471 68.1354V124.624H62.5824C62.4279 124.624 62.2798 124.685 62.1706 124.794C62.0614 124.903 62 125.052 62 125.206V129.865C62 131.564 62.6749 133.193 63.8762 134.394C65.0776 135.596 66.7069 136.271 68.4059 136.271H118.488C120.187 136.271 121.817 135.596 123.018 134.394C124.219 133.193 124.894 131.564 124.894 129.865V73.3765H135.959C136.113 73.3765 136.261 73.3152 136.371 73.206C136.48 73.0968 136.541 72.9486 136.541 72.7942V68.1354C136.541 66.4364 135.866 64.8071 134.665 63.6057C133.464 62.4044 131.834 61.7295 130.135 61.7295ZM114.773 135.106H68.4059C67.0158 135.106 65.6827 134.554 64.6998 133.571C63.7169 132.588 63.1647 131.255 63.1647 129.865V125.788H112.082C112.082 129.451 111.5 132.777 114.773 135.106ZM123.729 129.865C123.729 131.255 123.177 132.588 122.194 133.571C121.211 134.554 119.878 135.106 118.488 135.106C117.098 135.106 115.765 134.554 114.782 133.571C113.799 132.588 113.247 131.255 113.247 129.865V125.206C113.247 125.052 113.186 124.903 113.076 124.794C112.967 124.685 112.819 124.624 112.665 124.624H74.8118V68.1354C74.8118 66.7453 75.364 65.4122 76.3469 64.4293C77.3298 63.4464 78.6629 62.8942 80.0529 62.8942C129.902 62.8942 126.49 62.8476 126.298 62.9932C125.085 63.8969 124.231 65.2007 123.887 66.6737C123.84 66.8751 123.805 68.0283 123.779 69.8824C123.499 89.8751 123.729 109.871 123.729 129.865ZM135.376 72.2118H124.894V68.1354C124.894 66.7453 125.446 65.4122 126.429 64.4293C127.412 63.4464 128.745 62.8942 130.135 62.8942C131.525 62.8942 132.858 63.4464 133.841 64.4293C134.824 65.4122 135.376 66.7453 135.376 68.1354V72.2118Z" fill="#12333C"/>
<path d="M105.103 98.5166C105.561 98.0123 106.355 98.0123 106.813 98.5166C107.643 99.4304 108.93 99.7761 110.107 99.4004C110.751 99.1946 111.44 99.5912 111.586 100.259C111.849 101.464 112.789 102.411 113.997 102.676C114.66 102.821 115.059 103.511 114.852 104.164C114.479 105.339 114.82 106.629 115.733 107.463C116.239 107.925 116.239 108.722 115.733 109.184C114.82 110.018 114.479 111.308 114.852 112.483C115.059 113.136 114.66 113.826 113.997 113.971C112.789 114.236 111.849 115.183 111.586 116.387C111.44 117.056 110.751 117.452 110.107 117.246C108.93 116.871 107.643 117.216 106.813 118.13C106.355 118.634 105.561 118.634 105.103 118.13C104.273 117.216 102.986 116.871 101.809 117.246C101.165 117.452 100.475 117.056 100.33 116.387C100.067 115.183 99.1266 114.236 97.9191 113.971C97.2562 113.826 96.8567 113.136 97.0642 112.483C97.4372 111.308 97.0957 110.018 96.1833 109.184C95.6773 108.722 95.6773 107.925 96.1833 107.463C97.0957 106.629 97.4372 105.339 97.0642 104.164C96.8567 103.511 97.2562 102.821 97.9191 102.676C99.1266 102.411 100.067 101.464 100.33 100.259C100.475 99.5912 101.165 99.1946 101.809 99.4004C102.986 99.7761 104.273 99.4304 105.103 98.5166Z" fill="#E5735C" stroke="#12333C" stroke-width="2"/>




<path d="M110.61 105.513L105.14 110.939L102.534 108.354C102.466 108.286 102.373 108.248 102.276 108.248C102.18 108.248 102.087 108.286 102.019 108.354C101.95 108.421 101.912 108.513 101.912 108.609C101.912 108.705 101.95 108.797 102.019 108.865C105.108 111.929 104.925 111.805 105.14 111.805C105.355 111.805 104.854 112.238 111.125 106.017C111.193 105.949 111.23 105.858 111.229 105.762C111.229 105.667 111.19 105.576 111.122 105.509C111.053 105.442 110.961 105.405 110.865 105.406C110.769 105.406 110.677 105.445 110.61 105.513Z" fill="white"/></svg>